<svg width="24" height="25" viewBox="0 0 24 25" fill="none" xmlns="http://www.w3.org/2000/svg">
<g clip-path="url(#clip0_2_5529)">
<path d="M12 7.80469C14.76 7.80469 17 10.0447 17 12.8047C17 13.4547 16.87 14.0647 16.64 14.6347L19.56 17.5547C21.07 16.2947 22.26 14.6647 22.99 12.8047C21.26 8.41469 16.99 5.30469 11.99 5.30469C10.59 5.30469 9.25 5.55469 8.01 6.00469L10.17 8.16469C10.74 7.93469 11.35 7.80469 12 7.80469ZM2 5.07469L4.28 7.35469L4.74 7.81469C3.08 9.10469 1.78 10.8247 1 12.8047C2.73 17.1947 7 20.3047 12 20.3047C13.55 20.3047 15.03 20.0047 16.38 19.4647L16.8 19.8847L19.73 22.8047L21 21.5347L3.27 3.80469L2 5.07469ZM7.53 10.6047L9.08 12.1547C9.03 12.3647 9 12.5847 9 12.8047C9 14.4647 10.34 15.8047 12 15.8047C12.22 15.8047 12.44 15.7747 12.65 15.7247L14.2 17.2747C13.53 17.6047 12.79 17.8047 12 17.8047C9.24 17.8047 7 15.5647 7 12.8047C7 12.0147 7.2 11.2747 7.53 10.6047ZM11.84 9.82469L14.99 12.9747L15.01 12.8147C15.01 11.1547 13.67 9.81469 12.01 9.81469L11.84 9.82469Z" fill="#5A5A5A"/>
</g>
<defs>
<clipPath id="clip0_2_5529">
<rect width="24" height="24" fill="white" transform="translate(0 0.804688)"/>
</clipPath>
</defs>
</svg>
