<svg width="24" height="24" viewBox="0 0 24 24" fill="none" xmlns="http://www.w3.org/2000/svg">
<path d="M15.6667 16.5C15.6667 17.2142 15.4516 17.9124 15.0487 18.5062C14.6458 19.1001 14.0732 19.5629 13.4032 19.8362C12.7332 20.1095 11.9959 20.1811 11.2847 20.0417C10.5734 19.9024 9.92007 19.5585 9.40728 19.0534C8.89448 18.5484 8.54527 17.905 8.40379 17.2045C8.26231 16.504 8.33492 15.7779 8.61244 15.1181C8.88996 14.4582 9.35993 13.8943 9.96291 13.4975C10.5659 13.1007 11.2748 12.8889 12 12.8889C12.9725 12.8889 13.9051 13.2693 14.5927 13.9466C15.2804 14.6238 15.6667 15.5423 15.6667 16.5ZM23 10.7222V22.2778C23 22.4693 22.9227 22.653 22.7852 22.7885C22.6477 22.9239 22.4612 23 22.2667 23H1.73333C1.53884 23 1.35232 22.9239 1.21479 22.7885C1.07726 22.653 1 22.4693 1 22.2778V10.7222C1 10.5307 1.07726 10.347 1.21479 10.2115C1.35232 10.0761 1.53884 10 1.73333 10H22.2667C22.4612 10 22.6477 10.0761 22.7852 10.2115C22.9227 10.347 23 10.5307 23 10.7222ZM21.5333 14.9066C20.7006 14.6641 19.9428 14.2203 19.3288 13.6156C18.7148 13.0109 18.2641 12.2645 18.0179 11.4444H5.98208C5.73587 12.2645 5.28524 13.0109 4.67124 13.6156C4.05723 14.2203 3.29936 14.6641 2.46667 14.9066V18.0934C3.29936 18.3359 4.05723 18.7797 4.67124 19.3844C5.28524 19.9891 5.73587 20.7355 5.98208 21.5556H18.0179C18.2641 20.7355 18.7148 19.9891 19.3288 19.3844C19.9428 18.7797 20.7006 18.3359 21.5333 18.0934V14.9066Z" fill="#FF6900"/>
<path d="M13.4531 4.42978V1.30582C13.4531 1.07989 13.4032 1 13.1624 1H10.8384C10.5976 1 10.5468 1.07989 10.5468 1.30582V4.42978H8.87358C8.0968 4.42978 7.7078 5.31103 8.25705 5.82651L11.3834 8.76034C11.7239 9.07989 12.276 9.07989 12.6164 8.76034L15.7428 5.82651C16.2921 5.31107 15.9031 4.42978 15.1263 4.42978H13.4531Z" fill="#FF6900"/>
</svg>
