<svg width="24" height="24" viewBox="0 0 24 24" fill="none" xmlns="http://www.w3.org/2000/svg">
<path d="M12.0084 5.37903C12.0505 4.79699 12.2427 4.23579 12.5663 3.75021C12.89 3.26464 13.334 2.87128 13.8551 2.60853C14.3761 2.34578 14.9564 2.22263 15.5393 2.25109C16.1221 2.27954 16.6876 2.45864 17.1806 2.7709C17.237 2.80778 17.2824 2.85916 17.312 2.91964C17.3417 2.98012 17.3545 3.04746 17.3491 3.11461C17.3437 3.18175 17.3204 3.2462 17.2815 3.3012C17.2426 3.3562 17.1896 3.3997 17.1281 3.42715C16.2711 3.81272 15.5437 4.43749 15.0331 5.22643C14.5226 6.01537 14.2507 6.93493 14.25 7.87465C14.25 7.98434 14.25 8.09403 14.2612 8.20184C14.2664 8.26998 14.2529 8.33824 14.2221 8.39925C14.1913 8.46025 14.1444 8.51167 14.0865 8.54796C14.0285 8.58425 13.9618 8.60403 13.8935 8.60515C13.8252 8.60627 13.7578 8.5887 13.6987 8.55434C13.1463 8.23831 12.6944 7.77249 12.3953 7.21065C12.0962 6.6488 11.9621 6.01383 12.0084 5.37903ZM22.5 15.0568C22.5013 15.4854 22.3826 15.9058 22.1573 16.2703C21.9319 16.6348 21.609 16.929 21.225 17.1193L21.1838 17.1381L17.5434 18.6887C17.5075 18.7046 17.4701 18.7171 17.4319 18.7262L11.4319 20.2262C11.3724 20.2415 11.3114 20.2494 11.25 20.2497H1.5C1.10218 20.2497 0.720644 20.0916 0.43934 19.8103C0.158035 19.529 0 19.1475 0 18.7497V14.9997C0 14.6018 0.158035 14.2203 0.43934 13.939C0.720644 13.6577 1.10218 13.4997 1.5 13.4997H4.18969L6.31031 11.3781C6.58838 11.0988 6.91904 10.8773 7.28319 10.7266C7.64733 10.5758 8.03775 10.4987 8.43188 10.4997H13.125C13.5212 10.4996 13.9122 10.5892 14.2688 10.7618C14.6254 10.9344 14.9383 11.1854 15.1841 11.4961C15.4298 11.8069 15.6021 12.1692 15.6879 12.5559C15.7738 12.9427 15.7709 13.3438 15.6797 13.7293L19.6022 12.8275C19.9437 12.737 20.3013 12.7262 20.6477 12.7959C20.994 12.8655 21.3197 13.0137 21.5996 13.2291C21.8796 13.4445 22.1064 13.7213 22.2625 14.0382C22.4186 14.3551 22.4999 14.7036 22.5 15.0568ZM21 15.0568C20.9999 14.9328 20.9712 14.8105 20.9162 14.6994C20.8611 14.5883 20.7812 14.4913 20.6827 14.4161C20.5841 14.3408 20.4695 14.2893 20.3478 14.2654C20.2261 14.2416 20.1006 14.2462 19.9809 14.2787L19.9519 14.2862L13.6706 15.7309C13.6155 15.7432 13.5593 15.7495 13.5028 15.7497H10.5C10.3011 15.7497 10.1103 15.6706 9.96967 15.53C9.82902 15.3893 9.75 15.1986 9.75 14.9997C9.75 14.8007 9.82902 14.61 9.96967 14.4693C10.1103 14.3287 10.3011 14.2497 10.5 14.2497H13.125C13.4234 14.2497 13.7095 14.1311 13.9205 13.9201C14.1315 13.7092 14.25 13.423 14.25 13.1247C14.25 12.8263 14.1315 12.5401 13.9205 12.3292C13.7095 12.1182 13.4234 11.9997 13.125 11.9997H8.43188C8.23482 11.999 8.03961 12.0376 7.85758 12.1131C7.67555 12.1885 7.51035 12.2994 7.37156 12.4393L5.25 14.56V18.7497H11.1562L17.0091 17.2862L20.5716 15.7693C20.7012 15.701 20.8097 15.5985 20.8852 15.4729C20.9608 15.3473 21.0005 15.2034 21 15.0568ZM15.75 7.87465C15.75 8.54216 15.9479 9.19468 16.3188 9.7497C16.6896 10.3047 17.2167 10.7373 17.8334 10.9927C18.4501 11.2482 19.1287 11.315 19.7834 11.1848C20.4381 11.0546 21.0395 10.7331 21.5115 10.2611C21.9835 9.78913 22.3049 9.18777 22.4352 8.53308C22.5654 7.8784 22.4985 7.1998 22.2431 6.58309C21.9876 5.96639 21.5551 5.43929 21 5.06844C20.445 4.69759 19.7925 4.49965 19.125 4.49965C18.2299 4.49965 17.3715 4.85523 16.7385 5.48817C16.1056 6.1211 15.75 6.97955 15.75 7.87465Z" fill=""/>
</svg>
