<svg width="58" height="50" viewBox="0 0 58 50" fill="none" xmlns="http://www.w3.org/2000/svg">
<rect x="1" y="1" width="56" height="48" rx="3" fill="white"/>
<rect x="0.5" y="0.5" width="57" height="49" rx="3.5" stroke="#5A5A5A" stroke-opacity="0.5"/>
<path d="M20.9985 15C20.4475 15 20 15.4441 20 15.9918V34.0082C20 34.5447 20.4448 35 20.9934 35H37.0066C37.5551 35 38 34.5489 38 33.9925L37.9997 20L33 15H20.9985ZM27.5 20.5H29.5C29.5 22.9899 31.6436 25.6604 34.3162 26.5513L33.8586 28.49C30.7234 28.0421 27.4821 29.3804 24.5547 31.3321L23.3753 29.7191C24.4615 28.8502 25.5029 27.3757 26.275 25.6534C27.0443 23.9373 27.5 22.0775 27.5 20.5ZM28.1 26.4716C28.3673 25.8752 28.6043 25.2563 28.8037 24.6285C29.2754 25.3531 29.8553 26.0182 30.5102 26.5953C29.5284 26.7711 28.5666 27.0596 27.6353 27.4276C27.8 27.1143 27.9551 26.7948 28.1 26.4716Z" fill="#5A5A5A"/>
</svg>
