<svg width="34" height="34" viewBox="0 0 34 34" fill="none" xmlns="http://www.w3.org/2000/svg">
<rect x="1" y="1" width="32" height="32" rx="3" fill="white"/>
<rect x="0.5" y="0.5" width="33" height="33" rx="3.5" stroke="#5A5A5A" stroke-opacity="0.5"/>
<g clip-path="url(#clip0_2_47411)">
<path d="M24 13H10C8.34 13 7 14.34 7 16V22H11V26H23V22H27V16C27 14.34 25.66 13 24 13ZM21 24H13V19H21V24ZM24 17C23.45 17 23 16.55 23 16C23 15.45 23.45 15 24 15C24.55 15 25 15.45 25 16C25 16.55 24.55 17 24 17ZM23 8H11V12H23V8Z" fill="#5A5A5A"/>
</g>
<defs>
<clipPath id="clip0_2_47411">
<rect width="24" height="24" fill="white" transform="translate(5 5)"/>
</clipPath>
</defs>
</svg>
