<svg width="34" height="34" viewBox="0 0 34 34" fill="none" xmlns="http://www.w3.org/2000/svg">
<rect x="1" y="1" width="32" height="32" rx="3" fill="white"/>
<rect x="0.5" y="0.5" width="33" height="33" rx="3.5" stroke="#5A5A5A" stroke-opacity="0.5"/>
<path d="M8.9985 7C8.44749 7 8 7.44405 8 7.9918V26.0082C8 26.5447 8.44476 27 8.9934 27H25.0066C25.5551 27 26 26.5489 26 25.9925L25.9997 12L21 7H8.9985ZM15.5 12.5H17.5C17.5 14.9899 19.6436 17.6604 22.3162 18.5513L21.8586 20.49C18.7234 20.0421 15.4821 21.3804 12.5547 23.3321L11.3753 21.7191C12.4615 20.8502 13.5029 19.3757 14.275 17.6534C15.0443 15.9373 15.5 14.0775 15.5 12.5ZM16.1 18.4716C16.3673 17.8752 16.6043 17.2563 16.8037 16.6285C17.2754 17.3531 17.8553 18.0182 18.5102 18.5953C17.5284 18.7711 16.5666 19.0596 15.6353 19.4276C15.8 19.1143 15.9551 18.7948 16.1 18.4716Z" fill="#5A5A5A"/>
</svg>
