<svg width="24" height="24" viewBox="0 0 24 24" fill="none" xmlns="http://www.w3.org/2000/svg">
<path d="M1.53334 7.36049L11.5424 11.901C11.8346 12.0337 12.165 12.0337 12.4572 11.901L22.4662 7.36049C23.1774 7.0378 23.1774 5.96316 22.4662 5.64047L12.4576 1.09958C12.3141 1.03396 12.1581 1 12.0002 1C11.8424 1 11.6864 1.03396 11.5428 1.09958L1.53334 5.64004C0.822219 5.96273 0.822219 7.0378 1.53334 7.36049ZM22.4667 11.1537L19.9706 10.0224L13.0252 13.1707C12.7004 13.3181 12.3553 13.3928 12 13.3928C11.6447 13.3928 11.3 13.3181 10.9748 13.1707L4.0298 10.0224L1.53334 11.1537C0.822219 11.476 0.822219 12.5502 1.53334 12.8725L11.5424 17.4095C11.8346 17.5418 12.165 17.5418 12.4572 17.4095L22.4667 12.8725C23.1778 12.5502 23.1778 11.476 22.4667 11.1537ZM22.4667 16.6451L19.9801 15.518L13.0252 18.6706C12.7004 18.818 12.3553 18.8928 12 18.8928C11.6447 18.8928 11.3 18.818 10.9748 18.6706L4.02035 15.518L1.53334 16.6451C0.822219 16.9674 0.822219 18.0416 1.53334 18.3638L11.5424 22.9008C11.8346 23.0332 12.165 23.0332 12.4572 22.9008L22.4667 18.3638C23.1778 18.0416 23.1778 16.9674 22.4667 16.6451Z" fill="#FF6900"/>
</svg>
