<svg width="24" height="24" viewBox="0 0 24 24" fill="none" xmlns="http://www.w3.org/2000/svg">
<g clip-path="url(#clip0_234_7824)">
<path d="M19.1382 12.9404C19.1782 12.6404 19.1982 12.3304 19.1982 12.0004C19.1982 11.6804 19.1782 11.3604 19.1282 11.0604L21.1582 9.48039C21.3382 9.34039 21.3882 9.07039 21.2782 8.87039L19.3582 5.55039C19.2382 5.33039 18.9882 5.26039 18.7682 5.33039L16.3782 6.29039C15.8782 5.91039 15.3482 5.59039 14.7582 5.35039L14.3982 2.81039C14.3582 2.57039 14.1582 2.40039 13.9182 2.40039H10.0782C9.83816 2.40039 9.64816 2.57039 9.60816 2.81039L9.24816 5.35039C8.65816 5.59039 8.11816 5.92039 7.62816 6.29039L5.23816 5.33039C5.01816 5.25039 4.76816 5.33039 4.64816 5.55039L2.73816 8.87039C2.61816 9.08039 2.65816 9.34039 2.85816 9.48039L4.88816 11.0604C4.83816 11.3604 4.79816 11.6904 4.79816 12.0004C4.79816 12.3104 4.81816 12.6404 4.86816 12.9404L2.83816 14.5204C2.65816 14.6604 2.60816 14.9304 2.71816 15.1304L4.63816 18.4504C4.75816 18.6704 5.00816 18.7404 5.22816 18.6704L7.61816 17.7104C8.11816 18.0904 8.64816 18.4104 9.23816 18.6504L9.59816 21.1904C9.64816 21.4304 9.83816 21.6004 10.0782 21.6004H13.9182C14.1582 21.6004 14.3582 21.4304 14.3882 21.1904L14.7482 18.6504C15.3382 18.4104 15.8782 18.0904 16.3682 17.7104L18.7582 18.6704C18.9782 18.7504 19.2282 18.6704 19.3482 18.4504L21.2682 15.1304C21.3882 14.9104 21.3382 14.6604 21.1482 14.5204L19.1382 12.9404ZM11.9982 15.6004C10.0182 15.6004 8.39816 13.9804 8.39816 12.0004C8.39816 10.0204 10.0182 8.40039 11.9982 8.40039C13.9782 8.40039 15.5982 10.0204 15.5982 12.0004C15.5982 13.9804 13.9782 15.6004 11.9982 15.6004Z" fill=""/>
</g>
<defs>
<clipPath id="clip0_234_7824">
<rect width="24" height="24" fill=""/>
</clipPath>
</defs>
</svg>
