<svg width="24" height="25" viewBox="0 0 24 25" fill="none" xmlns="http://www.w3.org/2000/svg">
<g clip-path="url(#clip0_2_5532)">
<path d="M12 5.30469C7 5.30469 2.73 8.41469 1 12.8047C2.73 17.1947 7 20.3047 12 20.3047C17 20.3047 21.27 17.1947 23 12.8047C21.27 8.41469 17 5.30469 12 5.30469ZM12 17.8047C9.24 17.8047 7 15.5647 7 12.8047C7 10.0447 9.24 7.80469 12 7.80469C14.76 7.80469 17 10.0447 17 12.8047C17 15.5647 14.76 17.8047 12 17.8047ZM12 9.80469C10.34 9.80469 9 11.1447 9 12.8047C9 14.4647 10.34 15.8047 12 15.8047C13.66 15.8047 15 14.4647 15 12.8047C15 11.1447 13.66 9.80469 12 9.80469Z" fill="#5A5A5A"/>
</g>
<defs>
<clipPath id="clip0_2_5532">
<rect width="24" height="24" fill="white" transform="translate(0 0.804688)"/>
</clipPath>
</defs>
</svg>
