<svg width="20" height="18" viewBox="0 0 20 18" fill="none" xmlns="http://www.w3.org/2000/svg">
<path d="M15.75 12.3747H4.2625C4.125 12.3747 4.0125 12.5013 4.0125 12.656L4.00938 14.3436C4.00938 14.4983 4.12188 14.6248 4.25938 14.6248H15.75C15.8875 14.6248 16 14.4983 16 14.3436V12.656C16 12.5013 15.8875 12.3747 15.75 12.3747ZM15.75 15.7499H4.25313C4.11563 15.7499 4.00313 15.8765 4.00313 16.0312L4 17.7187C4 17.8734 4.1125 18 4.25 18H15.75C15.8875 18 16 17.8734 16 17.7187V16.0312C16 15.8765 15.8875 15.7499 15.75 15.7499ZM15.75 8.99956H4.26875C4.13125 8.99956 4.01875 9.12613 4.01875 9.28083L4.01562 10.9684C4.01562 11.1231 4.12813 11.2497 4.26562 11.2497H15.75C15.8875 11.2497 16 11.1231 16 10.9684V9.28083C16 9.12613 15.8875 8.99956 15.75 8.99956ZM19.0781 4.11261L10.575 0.129208C10.3922 0.0439071 10.1963 0 9.99844 0C9.80057 0 9.60464 0.0439071 9.42188 0.129208L0.921875 4.11261C0.365625 4.37629 0 4.98804 0 5.6701V17.7187C0 17.8734 0.1125 18 0.25 18H2.75C2.8875 18 3 17.8734 3 17.7187V8.99956C3 8.38078 3.45625 7.87451 4.01875 7.87451H15.9812C16.5438 7.87451 17 8.38078 17 8.99956V17.7187C17 17.8734 17.1125 18 17.25 18H19.75C19.8875 18 20 17.8734 20 17.7187V5.6701C20 4.98804 19.6344 4.37629 19.0781 4.11261Z" fill=""/>
</svg>
